PathFileType	4	(X/Y/Z)	C:/Users/beibeiliu/ov580/test_trc\sequence.9_training_dense_left.trc
DataRate	CameraRate	NumFrames	NumMarkers	Units	OrigDataRate	OrigDataStartFrame	OrigNumFrames
120	120	7	19	mm	120	200	398
Frame#	Time	ThumbCMC			ThumbMCP			ThumbIP			ThumbTip			IndexMCP			IndexPIP			IndexTip			MiddleMCP			MiddlePIP			MiddleTip			RingMCP			RingPIP			RingTip			PinkyMCP			PinkyPIP			PinkyTip			BackHand1			BackHand2			BackHand3	
		X0	Y0	Z0	X1	Y1	Z1	X2	Y2	Z2	X3	Y3	Z3	X4	Y4	Z4	X5	Y5	Z5	X6	Y6	Z6	X7	Y7	Z7	X8	Y8	Z8	X9	Y9	Z9	X10	Y10	Z10	X11	Y11	Z11	X12	Y12	Z12	X13	Y13	Z13	X14	Y14	Z14	X15	Y15	Z15	X16	Y16	Z16	X17	Y17	Z17	X18	Y18	Z18	
199	1.65833	-196.291	-11.589	-23.6907	-177.533	-14.9028	-40.707	-159.61	-9.79166	-55.995	-147.725	-5.87305	-62.2185	-203.559	-10.7747	-89.2591	-197.935	-7.99735	-107.443	-195.985	-0.005765	-127.326	-222.128	-25.1346	-95.466	-223.323	-29.4466	-114.483	-227.926	-29.929	-137.81	-235.017	-41.9421	-84.9454	-235.137	-47.1676	-105.199	-238.768	-50.7174	-125.787	-248.776	-60.1037	-72.2627	-248.102	-64.8719	-83.8712	-256.134	-73.0771	-98.4337	-239.054	-26.9478	-46.1184	-245.407	-21.3256	-19.5149	-221.941	-4.33475	-37.1487	
200	1.66667	-198.727	-7.25555	-23.753	-180.148	-8.96089	-39.8224	-163.39	-2.13013	-53.3912	-152.949	2.67077	-64.0978	-207.383	-10.1564	-89.912	-201.183	-6.27807	-105.379	-199.758	1.50131	-126.79	-226.496	-29.7366	-90.1272	-223.166	-29.1283	-117.31	-228.491	-35.4454	-138.14	-233.349	-43.7935	-81.6312	-235.035	-51.8791	-101.681	-234.832	-55.5758	-124.099	-243.838	-61.3902	-67.8251	-244.824	-71.3569	-82.6875	-252.918	-80.5138	-98.8816	-243.307	-31.1606	-40.833	-248.596	-25.3312	-17.0555	-230.488	-8.22069	-31.5279	
201	1.675	-202.074	-2.77693	-23.286	-182.226	-0.704043	-34.0381	-170.851	4.84972	-49.5643	-158.975	11.9025	-59.6251	-211.68	-10.9885	-86.4635	-207.6	-6.06619	-109.557	-206.133	-0.462401	-125.48	-226.039	-28.4021	-91.4223	-224.672	-33.6128	-116.656	-228.793	-37.727	-137.107	-236.524	-50.6189	-83.1484	-234.743	-58.4828	-103.498	-235.117	-63.0897	-123.911	-242.85	-67.1316	-66.4688	-243.167	-78.8811	-82.2275	-245.37	-86.7453	-95.2976	-244.654	-33.9187	-43.8789	-248.48	-25.2575	-14.9664	-233.85	-7.56727	-30.7694	
202	1.68333	-206.655	-0.0139286	-18.4319	-189.812	0.45343	-39.1799	-176.518	10.4802	-51.718	-164.534	21.9965	-57.4323	-212.756	-7.76101	-83.3434	-209.635	-2.96461	-107.188	-210.571	-1.7784	-125.835	-225.495	-29.4152	-89.103	-223.687	-33.4718	-115.753	-228.075	-42.7288	-134.371	-231.478	-48.4337	-82.2079	-229.586	-55.9367	-99.346	-229.138	-63.7052	-118.781	-237.744	-69.9236	-67.6377	-237.141	-78.2437	-77.1928	-240.775	-89.4285	-92.5819	-242.519	-34.2801	-43.2299	-250.205	-26.253	-17.3666	-234.579	-10.2727	-34.5977	
203	1.69167	-208.984	2.55458	-21.1259	-189.786	7.5787	-36.8706	-178.254	18.2766	-49.9791	-170.944	26.0429	-57.7868	-214.638	-9.60596	-83.9773	-209.798	-3.31731	-102.844	-210.901	-2.21311	-125.198	-224.132	-32.0817	-87.5188	-221.079	-35.5571	-112.202	-221.718	-41.4417	-134.369	-229.807	-53.6991	-78.8759	-225.566	-60.0058	-102.473	-227.535	-68.5158	-119.908	-233.546	-68.9535	-61.8887	-231.556	-81.5244	-77.8191	-232.87	-89.8718	-90.1485	-243.026	-38.9265	-42.1592	-252.467	-32.8361	-14.9828	-234.381	-8.55453	-33.3526	
204	1.7	-212.356	0.238742	-19.2395	-193.118	8.93821	-33.966	-182.508	16.8751	-45.1142	-173.192	32.688	-55.8014	-211.357	-6.05975	-85.5492	-209.82	-7.86461	-105.355	-209.207	-2.47011	-126.673	-222.889	-35.6474	-86.698	-219.497	-39.0826	-107.409	-219.804	-48.1603	-130.884	-225.166	-51.9559	-78.078	-221.513	-61.6335	-100.086	-221.653	-68.658	-114.04	-229.889	-70.6023	-59.9354	-226.24	-82.6358	-73.8443	-228.601	-94.5336	-86.2135	-240.637	-36.4372	-39.6916	-248.848	-30.8406	-15.2948	-237.189	-10.5981	-30.8874	
205	1.70833	-211.66	5.15276	-17.6371	-194.81	10.1694	-28.2648	-183.836	22.1439	-46.5356	-176.58	36.5802	-50.0513	-211.583	-8.12444	-79.6974	-206.638	-2.73471	-102.586	-207.989	-2.1545	-122.461	-219.74	-32.0829	-85.6886	-217.155	-40.5153	-106.721	-216.044	-47.1091	-131.531	-223.734	-55.9068	-78.423	-219.468	-62.9583	-97.4243	-216.73	-64.5455	-112.949	-225.524	-71.896	-63.0682	-221.191	-83.1056	-72.0861	-222.907	-90.7348	-85.9749	-240.644	-37.1165	-38.9642	-249.185	-36.8569	-13.2663	-237.315	-13.1768	-29.2891	
